<svg width="64" height="64" viewBox="0 0 64 64" fill="none" xmlns="http://www.w3.org/2000/svg">
  <path d="M32 16c-6.4 0-10.4 3.2-12 9.6 2.4-3.2 5.2-4.4 8.4-3.6 1.8.5 3.1 1.9 4.6 3.4 2.3 2.5 5 5.4 10.8 5.4 6.4 0 10.4-3.2 12-9.6-2.4 3.2-5.2 4.4-8.4 3.6-1.8-.5-3.1-1.9-4.6-3.4-2.3-2.5-5-5.4-10.8-5.4zM20 30.8c-6.4 0-10.4 3.2-12 9.6 2.4-3.2 5.2-4.4 8.4-3.6 1.8.5 3.1 1.9 4.6 3.4 2.3 2.5 5 5.4 10.8 5.4 6.4 0 10.4-3.2 12-9.6-2.4 3.2-5.2 4.4-8.4 3.6-1.8-.5-3.1-1.9-4.6-3.4-2.3-2.5-5-5.4-10.8-5.4z" fill="#06B6D4"/>
</svg>
